<svg id="Layer_1" data-name="Layer 1" xmlns="http://www.w3.org/2000/svg" viewBox="0 0 140 140"><defs><style>.cls-1{fill:#ee4036;}.cls-2{fill:#5900d3;}.cls-3{font-size:18px;fill:#56617a;font-family:Rajdhani-Semibold, Rajdhani;font-weight:700;}</style></defs><title>enterprise-icons</title><path class="cls-1" d="M90.16,84H88.49a.62.62,0,0,1-.65-.6c.2-5.82-.42-14-2.4-14.74a27.86,27.86,0,0,0-4,5.56c-.63,1.16-1.29,2.21-1.94,3.24-1.25,2-2.32,3.66-2.52,5.25l-.06.5H62.25l-.11-.44a7.36,7.36,0,0,1,1.33-5.85c1.74-2.2,4.88-3.32,9.32-3.32h0A86.25,86.25,0,0,0,86.31,57.11l.27-.43.46.21c.22.1,5.37,2.49,4.94,7.52-.09,1.07-.22,2.23-.35,3.48a112.86,112.86,0,0,0-.85,15.5S90.62,84,90.16,84ZM89,82.83h.6a116.09,116.09,0,0,1,.86-15.06c.13-1.24.26-2.39.35-3.46.3-3.42-2.67-5.47-3.82-6.13a86.8,86.8,0,0,1-13.6,16.4l-.17.15h-.45c-4.06,0-6.89,1-8.41,2.87A6.16,6.16,0,0,0,63.2,82H75.87a17.41,17.41,0,0,1,2.61-5.21c.64-1,1.3-2,1.9-3.17a28.29,28.29,0,0,1,4.46-6l.19-.18.26,0C89.09,67.71,89.1,79.25,89,82.83Z"/><path class="cls-1" d="M90.16,84.23H88.49a.86.86,0,0,1-.9-.84c.22-6.31-.52-13.46-2.1-14.44a27.41,27.41,0,0,0-3.88,5.37c-.63,1.16-1.3,2.22-1.94,3.24-1.24,2-2.3,3.63-2.49,5.16l-.06.5a.25.25,0,0,1-.25.22H62.25a.25.25,0,0,1-.24-.19l-.1-.44a7.6,7.6,0,0,1,1.37-6.07c1.78-2.25,5-3.4,9.43-3.41A85.69,85.69,0,0,0,86.1,57l.27-.43a.25.25,0,0,1,.31-.1l.46.21c.23.1,5.53,2.57,5.08,7.77-.09,1.07-.22,2.23-.35,3.48A112.64,112.64,0,0,0,91,83.38a.26.26,0,0,1,0,.07A1,1,0,0,1,90.16,84.23ZM85.44,68.39l.09,0c2.5.93,2.7,11.13,2.56,15a.36.36,0,0,0,.4.34h1.67c.22,0,.33-.28.37-.38a113.23,113.23,0,0,1,.85-15.49c.13-1.25.26-2.4.35-3.47.42-4.85-4.58-7.17-4.79-7.27L86.68,57l-.15.24A86,86,0,0,1,73,73.75a.25.25,0,0,1-.17.07c-4.37,0-7.44,1.08-9.14,3.22a7.07,7.07,0,0,0-1.28,5.64l.06.25h14.2l0-.28c.21-1.64,1.3-3.36,2.56-5.35.65-1,1.31-2.07,1.93-3.22a28,28,0,0,1,4.08-5.61A.25.25,0,0,1,85.44,68.39Zm4.17,14.69H89a.25.25,0,0,1-.25-.26c.18-7.18-.65-14.93-3.5-15.13h-.15l-.1.1a28.05,28.05,0,0,0-4.42,6c-.6,1.12-1.26,2.15-1.89,3.15a17.34,17.34,0,0,0-2.6,5.17.25.25,0,0,1-.24.2H63.2a.25.25,0,0,1-.25-.22,6.45,6.45,0,0,1,1.24-4.62c1.57-2,4.46-3,8.6-3h.36l.1-.08A87.11,87.11,0,0,0,86.79,58a.25.25,0,0,1,.34-.08c1.29.74,4.25,2.84,3.95,6.37-.09,1.07-.22,2.22-.35,3.46a116,116,0,0,0-.86,15,.25.25,0,0,1-.25.25Zm-.35-.5h.09a117.09,117.09,0,0,1,.87-14.82c.14-1.26.26-2.41.35-3.47.27-3.07-2.2-5-3.49-5.77A87.32,87.32,0,0,1,73.57,74.77l-.17.15a.25.25,0,0,1-.17.06h-.45c-4,0-6.75.93-8.21,2.78a5.88,5.88,0,0,0-1.15,4H75.67a18.45,18.45,0,0,1,2.59-5.09c.66-1,1.31-2.06,1.9-3.16a28.64,28.64,0,0,1,4.5-6.11l.18-.18a.25.25,0,0,1,.19-.07l.26,0C89.14,67.47,89.37,77.84,89.27,82.58Z"/><path class="cls-1" d="M43.76,39.88a.78.78,0,0,0-.59.66L43,44.4l-.59.1a3.61,3.61,0,0,0-2.91,4.18l3,17a3.61,3.61,0,0,0,4.18,2.91l.59-.1,1.51,3.55a.74.74,0,0,0,.79.43l9.22-1.64a.74.74,0,0,0,.59-.68l.19-3.85.59-.1A3.61,3.61,0,0,0,63.06,62L61.17,51.41l1.42-.25a.75.75,0,0,0,.58-.84l-.63-3.54a.75.75,0,0,0-.84-.58l-1.42.25L60,45a3.61,3.61,0,0,0-4.18-2.91l-.59.1-1.51-3.56a.74.74,0,0,0-.78-.42l-9.22,1.64Zm.81,1.32,8.11-1.44,1.16,2.72-9.42,1.67Zm-1.92,4.73,13.47-2.4a2.14,2.14,0,0,1,2.51,1.75l3,17a2.14,2.14,0,0,1-1.75,2.51L46.42,67.2a2.14,2.14,0,0,1-2.51-1.75l-3-17a2.14,2.14,0,0,1,1.75-2.51Zm4.78,4.27a1.44,1.44,0,1,0,1.67,1.17A1.44,1.44,0,0,0,47.42,50.2Zm5.67-1a1.44,1.44,0,1,0,1.67,1.17A1.44,1.44,0,0,0,53.09,49.19Zm7.44-1.32.71-.13.38,2.13-.71.13Zm-9.65,5.37A2.16,2.16,0,1,0,53.39,55,2.16,2.16,0,0,0,50.89,53.24ZM46,54.83A1.44,1.44,0,1,0,47.72,56,1.44,1.44,0,0,0,46,54.83ZM56,53.06a1.44,1.44,0,1,0,1.67,1.17A1.44,1.44,0,0,0,56,53.06Zm-7,5.64a1.44,1.44,0,1,0,1.67,1.17A1.44,1.44,0,0,0,48.93,58.7Zm5.67-1a1.44,1.44,0,1,0,1.67,1.17A1.44,1.44,0,0,0,54.6,57.69ZM48.71,68.25l9.39-1.67-.15,3L49.87,71Z"/><path class="cls-2" d="M70,100.18a44,44,0,1,1,44-44A44.07,44.07,0,0,1,70,100.18Zm0-85a41,41,0,1,0,41,41A41.07,41.07,0,0,0,70,15.14Z"/><text class="cls-3" transform="translate(24.79 120.67)">Marketplace</text><path class="cls-1" d="M91.95,31.8l-5.06-1.61a.52.52,0,0,0-.69.34l-.57,1.55-5.35-3.28v-.92a.29.29,0,0,1,.23-.29,2.15,2.15,0,0,0-.23-4.14,2.27,2.27,0,0,0-2.87,2.13.57.57,0,1,0,1.15,0,1.1,1.1,0,0,1,1.44-1,1,1,0,0,1,.11,2,1.47,1.47,0,0,0-1,1.32v.92l-5.35,3.28-.57-1.55a.54.54,0,0,0-.69-.34L67.45,31.8a.57.57,0,0,0-.4.57V50.43a.54.54,0,0,0,.57.57H91.77a.54.54,0,0,0,.57-.57V32.37A.69.69,0,0,0,91.95,31.8Zm-23.75,1,2.24-.69-1.21,8a.59.59,0,0,0,.4.63l3,1-1.9,2.47a.52.52,0,0,0,0,.69l3.39,4.89H68.2Zm7.3,17.08-3.62-5.23L74,41.86a.6.6,0,0,0-.29-.92l-3.28-1.15,1.21-8.11.63-.23L79,49.85ZM74.18,33.18l5.52-3.39,5.52,3.39L79.7,48.47Zm12.94-1.72.69.23L89,39.79l-3.28,1.15a.62.62,0,0,0-.29.92l2.13,2.76L84,49.85H80.45Zm4.08,18.4H85.33L88.73,45a.61.61,0,0,0,0-.69l-1.9-2.47,3-1a.62.62,0,0,0,.4-.63l-1.21-8,2.18.69Z"/><path class="cls-1" d="M91.77,51.25H67.63a.79.79,0,0,1-.83-.83V32.37a.82.82,0,0,1,.59-.82l5-1.61a.77.77,0,0,1,1,.49l.47,1.27,5-3v-.78A1.71,1.71,0,0,1,80,26.33a.77.77,0,0,0,.54-.78.75.75,0,0,0-.62-.7.88.88,0,0,0-.8.13.78.78,0,0,0-.33.61.82.82,0,0,1-1.65,0,2.4,2.4,0,0,1,.91-1.88,2.66,2.66,0,0,1,2.27-.49,2.4,2.4,0,0,1,1.88,2.27,2.33,2.33,0,0,1-1.63,2.35c-.06,0-.06,0-.06.05v.78l5,3L86,30.44a.69.69,0,0,1,.36-.45A.77.77,0,0,1,87,30l5,1.6h0a.94.94,0,0,1,.54.8V50.42A.79.79,0,0,1,91.77,51.25ZM72.69,30.4l-.09,0L67.53,32a.33.33,0,0,0-.23.34V50.42a.3.3,0,0,0,.33.33H91.77a.3.3,0,0,0,.33-.33V32.37a.44.44,0,0,0-.25-.34l-5-1.6a.29.29,0,0,0-.25,0,.22.22,0,0,0-.12.15l-.59,1.59a.25.25,0,0,1-.37.13L80.14,29a.25.25,0,0,1-.12-.21v-.92a.55.55,0,0,1,.4-.52,1.82,1.82,0,0,0,1.29-1.85,1.92,1.92,0,0,0-1.5-1.81,2.17,2.17,0,0,0-1.84.39,1.9,1.9,0,0,0-.72,1.49.32.32,0,0,0,.65,0,1.27,1.27,0,0,1,.53-1,1.37,1.37,0,0,1,1.23-.21,1.24,1.24,0,0,1,1,1.15,1.26,1.26,0,0,1-.86,1.28,1.23,1.23,0,0,0-.81,1.09v.92a.25.25,0,0,1-.12.21L73.91,32.3a.25.25,0,0,1-.37-.13L73,30.62A.32.32,0,0,0,72.69,30.4ZM91.2,50.1H85.33a.25.25,0,0,1-.21-.39l3.39-4.89c.08-.1.1-.21,0-.44L86.63,42a.25.25,0,0,1,.12-.39l3-1a.37.37,0,0,0,.23-.4l-1.2-8a.25.25,0,0,1,.08-.23.25.25,0,0,1,.24,0l2.19.69a.25.25,0,0,1,.17.24V49.85A.25.25,0,0,1,91.2,50.1Zm-5.39-.5h5.14V33l-1.63-.51,1.15,7.65a.88.88,0,0,1-.56.9l-2.67.93,1.69,2.2a.87.87,0,0,1,0,1ZM84,50.1H80.45a.25.25,0,0,1-.23-.33l6.67-18.4a.25.25,0,0,1,.31-.15l.69.23a.25.25,0,0,1,.17.2l1.21,8.11a.25.25,0,0,1-.16.27l-3.28,1.15a.33.33,0,0,0-.2.21.37.37,0,0,0,0,.33l2.12,2.75a.25.25,0,0,1,0,.29L84.16,50A.25.25,0,0,1,84,50.1Zm-3.15-.5h3l3.44-5-2-2.61a.88.88,0,0,1-.11-.78.84.84,0,0,1,.52-.53l3.08-1.08-1.15-7.75-.31-.1ZM79,50.1H75.5A.25.25,0,0,1,75.3,50l-3.62-5.23a.25.25,0,0,1,0-.29l2.13-2.76a.3.3,0,0,0,.05-.27.4.4,0,0,0-.24-.27L70.36,40a.25.25,0,0,1-.16-.27l1.21-8.11a.25.25,0,0,1,.16-.2l.63-.23a.24.24,0,0,1,.19,0,.25.25,0,0,1,.13.14l6.67,18.4a.25.25,0,0,1-.23.33Zm-3.32-.5h3L72.13,31.77l-.26.09-1.15,7.76L73.8,40.7a.91.91,0,0,1,.55.61.8.8,0,0,1-.15.7l-2,2.61Zm-1.51.5H68.2a.25.25,0,0,1-.25-.25V32.77a.25.25,0,0,1,.18-.24l2.24-.69a.25.25,0,0,1,.32.28l-1.21,8a.35.35,0,0,0,.25.36l3,1a.25.25,0,0,1,.12.39l-1.9,2.47a.29.29,0,0,0,0,.39l3.4,4.89a.25.25,0,0,1-.21.39Zm-5.67-.5h5.19l-3.12-4.49a.77.77,0,0,1,0-1l1.67-2.17L69.56,41a.84.84,0,0,1-.56-.93l1.14-7.63L68.45,33Zm11.25-.88a.25.25,0,0,1-.24-.17L73.95,33.26A.25.25,0,0,1,74,33l5.52-3.39a.25.25,0,0,1,.26,0L85.35,33a.25.25,0,0,1,.1.3L79.94,48.56A.25.25,0,0,1,79.7,48.72ZM74.48,33.28,79.7,47.73l5.22-14.45L79.7,30.08Z"/></svg>