<svg id="Layer_1" data-name="Layer 1" xmlns="http://www.w3.org/2000/svg" viewBox="0 0 140 140"><defs><style>.cls-1{fill:#ee4036;}.cls-2{fill:#5900d3;}.cls-3{font-size:18px;fill:#56617a;font-family:Rajdhani-Semibold, Rajdhani;font-weight:700;}</style></defs><title>enterprise-icons</title><path class="cls-1" d="M75.91,43.15a5.51,5.51,0,1,0-5.51,5.51A5.51,5.51,0,0,0,75.91,43.15Zm-9.46,0a4,4,0,1,1,4,4A4,4,0,0,1,66.45,43.15Z"/><path class="cls-1" d="M82.31,56.75h0a11.82,11.82,0,0,0-4.09-8.91,8.85,8.85,0,1,0-15.64,0,11.82,11.82,0,0,0-4.09,8.91h0v8.1a8.3,8.3,0,0,0,8.29,8.29H74a8.3,8.3,0,0,0,8.29-8.29V56.78S82.31,56.76,82.31,56.75ZM64.07,48.62a.78.78,0,0,0,.18-1,7.29,7.29,0,1,1,12.32,0,.78.78,0,0,0,.18,1,10.31,10.31,0,0,1,4,7.38,11.7,11.7,0,0,1-9.44-5.12.71.71,0,0,0,0-.11H69.54a.73.73,0,0,0,0,.11A11.69,11.69,0,0,1,60.08,56,10.31,10.31,0,0,1,64.07,48.62Zm10,23H66.79a6.74,6.74,0,0,1-6.72-6.31H80.74A6.74,6.74,0,0,1,74,71.59Zm6.74-7.86H60.05V57.55a13.22,13.22,0,0,0,10.36-5.24,13.22,13.22,0,0,0,10.35,5.24v6.18Z"/><path class="cls-1" d="M70.53,32.24A11.57,11.57,0,0,1,81.77,46.61L82,47.89a14.69,14.69,0,0,1,3.12,8.64V65a11,11,0,0,1-11,11H66.91a11,11,0,0,1-11-11V56.56A14.71,14.71,0,0,1,59,47.89l.27-1.28A11.57,11.57,0,0,1,70.53,32.24m0-1.49A13.06,13.06,0,0,0,57.84,47a16.1,16.1,0,0,0-3.44,9.56V65A12.53,12.53,0,0,0,66.91,77.49h7.24A12.53,12.53,0,0,0,86.67,65V56.49A16.09,16.09,0,0,0,83.22,47,13.06,13.06,0,0,0,70.53,30.75Z"/><path class="cls-2" d="M70,100.18a44,44,0,1,1,44-44A44.07,44.07,0,0,1,70,100.18Zm0-85a41,41,0,1,0,41,41A41.07,41.07,0,0,0,70,15.14Z"/><text class="cls-3" transform="translate(31.5 120.67)">Multi-lojas</text></svg>