<svg id="Layer_1" data-name="Layer 1" xmlns="http://www.w3.org/2000/svg" viewBox="0 0 140 140"><defs><style>.cls-1{fill:#ee4036;}.cls-2{fill:#5900d3;}.cls-3{font-size:18px;fill:#56617a;font-family:Rajdhani-Semibold, Rajdhani;font-weight:700;}</style></defs><title>enterprise-icons</title><path class="cls-1" d="M50.43,56.36a1.12,1.12,0,0,0,.79.33h0a1.12,1.12,0,0,0,.55-.15l3.73,3.6-1.13,1.14a3,3,0,0,0,0,4.26l.33.33a3,3,0,0,0,1.83.85,3,3,0,0,0,.85,1.83l.33.33a3,3,0,0,0,1.82.85,3,3,0,0,0,.86,1.83l.33.33a3,3,0,0,0,1.82.85,3,3,0,0,0,.85,1.82l.33.33a3,3,0,0,0,4.26,0l1.21-1.22,1.94,1.93a3,3,0,0,0,2.13.88h0a3,3,0,0,0,2.13-.88l.33-.33a3,3,0,0,0,.86-1.79,3,3,0,0,0,1.78-.86l.33-.33a3,3,0,0,0,.85-1.82,3,3,0,0,0,1.82-.85l.33-.33a3,3,0,0,0,.85-1.82,3,3,0,0,0,1.82-.85l.33-.33a3,3,0,0,0,0-4.26l-1.28-1.28L88,56.19l0,0a1.12,1.12,0,0,0,1.58,0l4.32-4.32a1.12,1.12,0,0,0,0-1.59L80.33,36.83a1.12,1.12,0,0,0-1.58,0l-4.32,4.32a1.12,1.12,0,0,0,0,1.59l1,1-.27.27a1.81,1.81,0,0,1-2.9.1L72.17,44l-.7-.7a3.7,3.7,0,0,0-2.63-1.08h0a3.7,3.7,0,0,0-2.63,1.09l-.14.14-.71-.66a1.12,1.12,0,0,0-.05-1.52L61,37a1.12,1.12,0,0,0-1.59,0L46.1,50.46a1.12,1.12,0,0,0,0,1.58ZM56,63.94a.78.78,0,0,1,0-1.09l5-5a.77.77,0,0,1,1.09,0l.33.33a.77.77,0,0,1,.23.55.76.76,0,0,1-.22.54l-5,5a.8.8,0,0,1-1.09,0Zm3,3a.78.78,0,0,1,0-1.09l5-5a.78.78,0,0,1,1.09,0l.33.33a.77.77,0,0,1,0,1.09L62.66,65,60.4,67.28h0a.79.79,0,0,1-1.09,0Zm3,3a.78.78,0,0,1,0-1.09h0l2.26-2.26,1.6-1.6a.77.77,0,0,1,1.09,0l.33.33a.77.77,0,0,1,0,1.09l-3.86,3.87a.79.79,0,0,1-1.09,0Zm4.43,3.33a.79.79,0,0,1-1.09,0L65,73a.77.77,0,0,1,0-1.09h0l2.75-2.75a.76.76,0,0,1,.54-.22.77.77,0,0,1,.55.23l.33.33a.78.78,0,0,1,0,1.09Zm7.74.38-.33.33a.76.76,0,0,1-.54.22h0a.76.76,0,0,1-.54-.22L70.8,72.06a3,3,0,0,0,.83-2.14,1.11,1.11,0,0,0,.28.47l2.23,2.22.17.16A.77.77,0,0,1,74.16,73.67Zm5.38-34.47,12,11.9-2.73,2.73-12-11.9ZM68.83,44.47h0a1.48,1.48,0,0,1,1,.43l.68.68A4.39,4.39,0,0,0,73.5,47a4.27,4.27,0,0,0,3.22-1.43l.28-.28,9.38,9.33-4.53,4.54-10-10a1.12,1.12,0,0,0-1.87-1l-4.16,4a1.49,1.49,0,0,1-2.1,0l-.51-.51a1.49,1.49,0,0,1,0-2.1l4.59-4.6A1.48,1.48,0,0,1,68.83,44.47ZM61.6,47.92a3.74,3.74,0,0,0,0,5.27l.51.51a3.73,3.73,0,0,0,2.64,1.09,3.68,3.68,0,0,0,2.62-1.08l3-2.85L83.13,63.6a.77.77,0,0,1,0,1.09L82.8,65a.76.76,0,0,1-.55.22h0a.76.76,0,0,1-.51-.2l0,0L78.79,62.1a1.12,1.12,0,0,0-1.58,1.59l2.85,2.84.07.08,0,0a.78.78,0,0,1,0,1.06L79.8,68a.78.78,0,0,1-1.06,0l0,0-2.45-2.44a1.12,1.12,0,1,0-1.59,1.59l2.38,2.37.06.08,0,0a.76.76,0,0,1,0,1.06l-.33.33a.76.76,0,0,1-.55.22.86.86,0,0,1-.36-.09L75.74,71l-2.26-2.19a1.12,1.12,0,0,0-1.89.69,3,3,0,0,0-.84-1.62l-.33-.33a3,3,0,0,0-.88-.6,3,3,0,0,0,.2-1.06,3,3,0,0,0-.88-2.13l-.33-.33a3,3,0,0,0-.88-.6A3,3,0,0,0,67,59.62l-.33-.33a3,3,0,0,0-1.83-.85,3,3,0,0,0-.86-1.83l-.33-.33a3,3,0,0,0-4.26,0l-2.26,2.26L53.38,55,63.77,44.4l.7.64Zm-1.42-8.58,2.73,2.73L51.22,54l-2.73-2.73Z"/><path class="cls-1" d="M60.12,43.26a1.12,1.12,0,0,0,.79-1.91,1.16,1.16,0,0,0-1.59,0,1.12,1.12,0,0,0,.79,1.91Z"/><path class="cls-1" d="M89.85,51a1.13,1.13,0,0,0-.33-.79,1.16,1.16,0,0,0-1.59,0,1.12,1.12,0,1,0,1.91.79Z"/><path class="cls-2" d="M70,100.18a44,44,0,1,1,44-44A44.07,44.07,0,0,1,70,100.18Zm0-85a41,41,0,1,0,41,41A41.07,41.07,0,0,0,70,15.14Z"/><text class="cls-3" transform="translate(55.68 120.67)">B2B</text></svg>