<svg id="Layer_1" data-name="Layer 1" xmlns="http://www.w3.org/2000/svg" viewBox="0 0 140 140"><defs><style>.cls-1{fill:#5900d3;}.cls-2{font-size:18px;fill:#56617a;font-family:Rajdhani-Semibold, Rajdhani;font-weight:700;}.cls-3{fill:#ee4036;}</style></defs><title>enterprise-icons</title><path class="cls-1" d="M70,100.18a44,44,0,1,1,44-44A44.07,44.07,0,0,1,70,100.18Zm0-85a41,41,0,1,0,41,41A41.07,41.07,0,0,0,70,15.14Z"/><text class="cls-2" transform="translate(23.98 120.67)">Flexibilidade</text><path class="cls-3" d="M79.5,41.08H60.62l.05,1.43a24.89,24.89,0,0,0,1.58,8.42A15.13,15.13,0,0,0,66.44,57c1.22,1,2.6,1.74,3.88,2.6a12.49,12.49,0,0,1,3.42,2.91,15.42,15.42,0,0,1,1.84,3.22,18.87,18.87,0,0,1,1.17,6.07H63.48c.41-5.26,2-8.78,5.05-11.28a20.9,20.9,0,0,1-2.35-1.58,15.12,15.12,0,0,0-3.32,4.34,23,23,0,0,0-2.19,9.85l-.05,1.43H79.5V73.18a22.72,22.72,0,0,0-1.38-8.47A14.67,14.67,0,0,0,73,58.28c-.71-.51-1.48-1-2.19-1.43a14.58,14.58,0,0,1-5.77-5.77A20.11,20.11,0,0,1,63.32,44H76.59c-.2,5.21-1.79,8.68-5.1,11.28a27.87,27.87,0,0,1,2.4,1.58,14,14,0,0,0,3.37-4.24,20.77,20.77,0,0,0,2.09-10V41.13h.15Z"/><path class="cls-3" d="M78,76.8l-1.68.82,1.53.51A19.76,19.76,0,0,1,61,77.57l-.87,1.84a22.6,22.6,0,0,0,9.9,2.4A22.34,22.34,0,0,0,78.79,80l-.56,1.58,1.68-.82,1-2.91Z"/><path class="cls-3" d="M61.33,35.67l.56-1.58-1.68.82-1,2.91,2.91,1L63.78,38l-1.53-.51A19.76,19.76,0,0,1,79,38.07l.87-1.84A21.57,21.57,0,0,0,61.33,35.67Z"/></svg>