<svg id="Layer_1" data-name="Layer 1" xmlns="http://www.w3.org/2000/svg" viewBox="0 0 283.46 224.98"><defs><style>.cls-1{fill:#ee4036;}.cls-2{fill:#fff;}.cls-3{fill:#f4ea0b;}</style></defs><title>JN2 Partner Magento</title><path class="cls-1" d="M250.91,113.34A60.15,60.15,0,0,1,238.65,118l.07.15a47.91,47.91,0,0,0-36.8,32.32A103,103,0,1,1,136.71,24.71l0,0a47.79,47.79,0,0,0,36.95-2.9A47.92,47.92,0,0,0,185,13.7h0a60.14,60.14,0,0,1,11.05-7,60,60,0,0,1,54.9,106.68Z"/><g id="g9449"><path id="path9451" class="cls-2" d="M56.34,82.06a2.9,2.9,0,0,1,3-3.08,3.07,3.07,0,0,1,3.08,3.08v47.25c0,6.63-1.14,11.88-5.25,17.82l-6.4,9.23a2.81,2.81,0,0,1-2.63,1.25,2.75,2.75,0,0,1-3-3,4.17,4.17,0,0,1,.58-1.93l6.16-8.78a24,24,0,0,0,4.46-14.73V82.06Zm0-21.92a2.85,2.85,0,0,1,3-3.08,3,3,0,0,1,3.08,3.08v2.17a3,3,0,0,1-3.08,3,2.82,2.82,0,0,1-3-3Z"/><path id="path9453" class="cls-2" d="M110.63,97.15c0-8-5.49-13.35-11.87-13.35H79.58v49.08a3.13,3.13,0,0,1-3.09,3.31,3,3,0,0,1-3-3.08V83a4.84,4.84,0,0,1,4.79-4.91H98.75c9.58,0,17.92,7,17.92,19.06v36a3.14,3.14,0,0,1-3.08,3.08,3,3,0,0,1-3-3.08v-36Z"/><path id="path9455" class="cls-2" d="M144.72,111c4.46-4.2,8.39-8.48,8.39-15.21V93.21c0-6.9-6.29-10.66-12.93-10.66H125.4a2.23,2.23,0,1,1,0-4.46h14.86c9.8,0,17.32,5.34,17.32,15.12v2.45c0,8.48-4.11,13.38-9.36,18.36l-18.7,17.48h28.15a2.36,2.36,0,0,1,2.45,2.27,2.32,2.32,0,0,1-2.28,2.27H125.4a3.05,3.05,0,0,1-2.88-3,2.84,2.84,0,0,1,.87-2.09Z"/></g><path id="path9459" class="cls-2" d="M76.57,158.86a3.18,3.18,0,0,1-2.35-.85,3.22,3.22,0,0,1-.85-2.38,6.78,6.78,0,0,1,.59-2.82,4.84,4.84,0,0,1,1.61-2,3.87,3.87,0,0,1,2.27-.71,3,3,0,0,1,1.92.55,1.91,1.91,0,0,1,.68,1.57,2.44,2.44,0,0,1-1.27,2.18,7,7,0,0,1-3.63.78h-.33v.46a1.92,1.92,0,0,0,.43,1.33,1.64,1.64,0,0,0,1.29.48A4.19,4.19,0,0,0,78,157.3a7.62,7.62,0,0,0,1.29-.5v1.43a6.8,6.8,0,0,1-1.35.48,6.1,6.1,0,0,1-1.38.14Zm1.17-7.4a1.93,1.93,0,0,0-1.38.66,3.8,3.8,0,0,0-.93,1.74h.22a5.08,5.08,0,0,0,2.25-.41,1.27,1.27,0,0,0,.81-1.16.78.78,0,0,0-.25-.61,1,1,0,0,0-.73-.22Z"/><path id="path9461" class="cls-2" d="M90.09,158.86a3.19,3.19,0,0,1-2.33-.81,3.11,3.11,0,0,1-.83-2.32,7.16,7.16,0,0,1,.56-2.89,4.75,4.75,0,0,1,1.58-2,3.87,3.87,0,0,1,2.31-.73,5.39,5.39,0,0,1,2.27.46L93.13,152a4.28,4.28,0,0,0-1.69-.41,2.24,2.24,0,0,0-1.91,1.17,5.23,5.23,0,0,0-.77,2.91,1.85,1.85,0,0,0,.43,1.31,1.55,1.55,0,0,0,1.19.46,3.23,3.23,0,0,0,1.06-.17,8.4,8.4,0,0,0,1-.41v1.49A5.13,5.13,0,0,1,90.09,158.86Z"/><path id="path9463" class="cls-2" d="M101.78,153.41a6.93,6.93,0,0,1-.56,2.82,4.56,4.56,0,0,1-1.54,1.94,3.85,3.85,0,0,1-2.25.68A3.13,3.13,0,0,1,95.1,158a3.25,3.25,0,0,1-.87-2.38,7,7,0,0,1,.55-2.79,4.61,4.61,0,0,1,1.53-2,3.82,3.82,0,0,1,2.28-.71,3.07,3.07,0,0,1,2.34.89,3.38,3.38,0,0,1,.84,2.42Zm-1.82-.08a2,2,0,0,0-.37-1.28,1.31,1.31,0,0,0-1.08-.46,1.77,1.77,0,0,0-1.27.55,3.61,3.61,0,0,0-.88,1.49,6.37,6.37,0,0,0-.31,2,2,2,0,0,0,.38,1.3,1.37,1.37,0,0,0,1.12.45,1.76,1.76,0,0,0,1.24-.52,3.44,3.44,0,0,0,.86-1.46,6.71,6.71,0,0,0,.31-2.07Z"/><path id="path9465" class="cls-2" d="M108.69,150.08a1.82,1.82,0,0,1,1.94,1.8h.06a4.3,4.3,0,0,1,1.31-1.34,2.84,2.84,0,0,1,1.52-.45,2,2,0,0,1,1.55.58,2.38,2.38,0,0,1,.53,1.65,8,8,0,0,1-.17,1.39l-1.07,5h-1.8l1.1-5.15a6.34,6.34,0,0,0,.15-1q0-1-.93-1a2,2,0,0,0-1.55,1,6.29,6.29,0,0,0-1,2.52l-.78,3.69h-1.8l1.1-5.15a5.16,5.16,0,0,0,.13-1q0-1-.89-1a2,2,0,0,0-1.56,1,6.7,6.7,0,0,0-1.06,2.59l-.75,3.59h-1.81l1.81-8.47h1.41l-.16,1.57H106a3.23,3.23,0,0,1,2.7-1.72Z"/><path id="path9467" class="cls-2" d="M122.62,150.08a1.81,1.81,0,0,1,1.94,1.8h.07a4.25,4.25,0,0,1,1.31-1.34,2.82,2.82,0,0,1,1.52-.45,2,2,0,0,1,1.55.58,2.38,2.38,0,0,1,.53,1.65,7.93,7.93,0,0,1-.17,1.39l-1.07,5h-1.8l1.09-5.15a6.13,6.13,0,0,0,.15-1q0-1-.93-1a2,2,0,0,0-1.54,1,6.29,6.29,0,0,0-1,2.52l-.77,3.69h-1.8l1.09-5.15a5.22,5.22,0,0,0,.13-1c0-.69-.3-1-.9-1a2,2,0,0,0-1.56,1,6.68,6.68,0,0,0-1.06,2.59l-.75,3.59H116.8l1.81-8.47H120l-.16,1.57h.07a3.24,3.24,0,0,1,2.7-1.72Z"/><path id="path9469" class="cls-2" d="M134.29,158.86a3.18,3.18,0,0,1-2.35-.85,3.22,3.22,0,0,1-.85-2.38,6.71,6.71,0,0,1,.6-2.82,4.81,4.81,0,0,1,1.61-2,3.86,3.86,0,0,1,2.27-.71,3,3,0,0,1,1.92.55,1.91,1.91,0,0,1,.68,1.57,2.44,2.44,0,0,1-1.27,2.18,7,7,0,0,1-3.63.78h-.33v.46a1.92,1.92,0,0,0,.43,1.33,1.64,1.64,0,0,0,1.29.48,4.2,4.2,0,0,0,1.09-.15,7.7,7.7,0,0,0,1.29-.5v1.43a6.76,6.76,0,0,1-1.35.48A6.09,6.09,0,0,1,134.29,158.86Zm1.16-7.4a1.93,1.93,0,0,0-1.38.66,3.83,3.83,0,0,0-.93,1.74h.23a5.09,5.09,0,0,0,2.25-.41,1.27,1.27,0,0,0,.81-1.16.78.78,0,0,0-.24-.61,1.06,1.06,0,0,0-.73-.22Z"/><path id="path9471" class="cls-2" d="M144.7,150.08a3.4,3.4,0,0,1,.83.09l-.39,1.67a3.18,3.18,0,0,0-.78-.1,2.25,2.25,0,0,0-1.72.86,4.91,4.91,0,0,0-1.06,2.27l-.81,3.83H139l1.81-8.47h1.41L142,151.8h.07a4.69,4.69,0,0,1,1.27-1.32,2.48,2.48,0,0,1,1.35-.4Z"/><path id="path9473" class="cls-2" d="M148.88,158.86a3.19,3.19,0,0,1-2.33-.81,3.11,3.11,0,0,1-.83-2.32,7.18,7.18,0,0,1,.56-2.89,4.77,4.77,0,0,1,1.58-2,3.86,3.86,0,0,1,2.31-.73,5.39,5.39,0,0,1,2.27.46l-.53,1.41a4.26,4.26,0,0,0-1.69-.41,2.24,2.24,0,0,0-1.91,1.17,5.19,5.19,0,0,0-.77,2.91,1.84,1.84,0,0,0,.43,1.31,1.55,1.55,0,0,0,1.19.46,3.25,3.25,0,0,0,1.06-.17,8.12,8.12,0,0,0,1-.41v1.49a5.1,5.1,0,0,1-2.33.54Z"/><path id="path9475" class="cls-2" d="M156.23,158.86a3.18,3.18,0,0,1-2.35-.85,3.21,3.21,0,0,1-.85-2.38,6.76,6.76,0,0,1,.59-2.82,4.83,4.83,0,0,1,1.61-2,3.86,3.86,0,0,1,2.27-.71,3,3,0,0,1,1.92.55,1.91,1.91,0,0,1,.68,1.57,2.44,2.44,0,0,1-1.27,2.18,7,7,0,0,1-3.63.78h-.33l0,.24v.22a1.93,1.93,0,0,0,.43,1.33,1.64,1.64,0,0,0,1.29.48,4.21,4.21,0,0,0,1.1-.15,7.75,7.75,0,0,0,1.29-.5v1.43a6.84,6.84,0,0,1-1.35.48A6.12,6.12,0,0,1,156.23,158.86Zm1.16-7.4a1.93,1.93,0,0,0-1.38.66,3.81,3.81,0,0,0-.93,1.74h.22a5.07,5.07,0,0,0,2.25-.41,1.26,1.26,0,0,0,.81-1.16.78.78,0,0,0-.24-.61,1.05,1.05,0,0,0-.73-.22Z"/><path id="path9477" class="cls-2" d="M75.14,174.32a3.19,3.19,0,0,1-2.36-.85,3.23,3.23,0,0,1-.84-2.38,6.69,6.69,0,0,1,.59-2.82,4.83,4.83,0,0,1,1.61-2,3.86,3.86,0,0,1,2.27-.71,3,3,0,0,1,1.92.56,1.91,1.91,0,0,1,.69,1.57,2.44,2.44,0,0,1-1.28,2.18,7,7,0,0,1-3.63.79h-.33l0,.24v.22a1.92,1.92,0,0,0,.43,1.33,1.64,1.64,0,0,0,1.29.48,4.21,4.21,0,0,0,1.09-.14,7.91,7.91,0,0,0,1.29-.5v1.43a7.05,7.05,0,0,1-1.35.48,6.36,6.36,0,0,1-1.37.14Zm1.16-7.4a1.92,1.92,0,0,0-1.38.66,3.8,3.8,0,0,0-.93,1.74h.22a5.08,5.08,0,0,0,2.25-.41,1.27,1.27,0,0,0,.82-1.16.77.77,0,0,0-.25-.61,1,1,0,0,0-.73-.22Z"/><path id="path9479" class="cls-2" d="M83.19,171.2l-2.33,3H78.79l3.64-4.36-1.77-4.11h1.88l1.1,2.86,2.2-2.86h2.09L84.4,169.9l1.9,4.27H84.42l-1.23-3Z"/><path id="path9481" class="cls-2" d="M91.78,174.32A2.19,2.19,0,0,1,89.72,173h-.08a10.94,10.94,0,0,1-.19,1.42l-.73,3.54H86.93l2.59-12.24h1.41l-.16,1.44h.07a3.36,3.36,0,0,1,2.64-1.59,2.06,2.06,0,0,1,1.71.79,3.45,3.45,0,0,1,.62,2.19,7.92,7.92,0,0,1-.53,2.92,5.11,5.11,0,0,1-1.46,2.12A3.15,3.15,0,0,1,91.78,174.32Zm1-7.31a1.78,1.78,0,0,0-1.23.61,4.6,4.6,0,0,0-1,1.61,5.7,5.7,0,0,0-.39,2.07,1.67,1.67,0,0,0,.36,1.15,1.25,1.25,0,0,0,1,.41,1.66,1.66,0,0,0,1.22-.6,4.24,4.24,0,0,0,.9-1.61,6.74,6.74,0,0,0,.33-2.1Q94,167,92.8,167Z"/><path id="path9483" class="cls-2" d="M100.46,174.32a2.94,2.94,0,0,1-3.2-3.23,6.71,6.71,0,0,1,.59-2.82,4.86,4.86,0,0,1,1.61-2,3.86,3.86,0,0,1,2.27-.71,3,3,0,0,1,1.92.56,1.91,1.91,0,0,1,.69,1.57,2.44,2.44,0,0,1-1.28,2.18,7,7,0,0,1-3.63.79H99.1v.46a1.92,1.92,0,0,0,.43,1.33,1.65,1.65,0,0,0,1.29.48,4.23,4.23,0,0,0,1.09-.14,7.91,7.91,0,0,0,1.29-.5v1.43a7.06,7.06,0,0,1-1.35.48,6.37,6.37,0,0,1-1.37.14Zm1.16-7.4a1.92,1.92,0,0,0-1.38.66,3.76,3.76,0,0,0-.93,1.74h.22a5.09,5.09,0,0,0,2.25-.41,1.27,1.27,0,0,0,.81-1.16.77.77,0,0,0-.25-.61,1,1,0,0,0-.72-.22Z"/><path id="path9485" class="cls-2" d="M110.88,165.55a3.27,3.27,0,0,1,.83.09l-.39,1.68a3.23,3.23,0,0,0-.78-.11,2.24,2.24,0,0,0-1.72.86,4.92,4.92,0,0,0-1.06,2.27l-.81,3.83h-1.81l1.81-8.47h1.41l-.16,1.57h.07a4.68,4.68,0,0,1,1.27-1.32,2.48,2.48,0,0,1,1.35-.4Z"/><path id="path9487" class="cls-2" d="M114.66,172.87a3.37,3.37,0,0,0,1.16-.24V174a3.4,3.4,0,0,1-.73.23,4.45,4.45,0,0,1-.92.1q-2.1,0-2.1-1.89a4.84,4.84,0,0,1,.12-1l.93-4.36h-1.24l.16-.84,1.45-.63,1-1.78h1.12l-.4,1.88h2.14l-.3,1.36h-2.12l-.93,4.38a3.06,3.06,0,0,0-.1.7.72.72,0,0,0,.19.53.78.78,0,0,0,.58.2Z"/><path class="cls-2" d="M85.38,153.93V155H81.23v-1.09Z"/><path class="cls-2" d="M212.42,79.63l-1.16,1.55h-.13L210,79.63v2.59h-.67V78.65h.77l1.11,1.53,1.11-1.53h.77v3.56h-.67Z"/><path class="cls-2" d="M217.78,81.54h-1.86l-.31.67h-.73l1.6-3.56h.73l1.6,3.56h-.73Zm-.93-2.14-.66,1.52h1.32Z"/><path class="cls-2" d="M223.13,79.52a1.37,1.37,0,0,0-.91-.36A1.22,1.22,0,0,0,221,80.48a1.13,1.13,0,0,0,1.23,1.19,1.18,1.18,0,0,0,.8-.28v-.63h-.91v-.6h1.53v1.5a1.77,1.77,0,0,1-1.42.64,1.72,1.72,0,0,1-1.88-1.82,1.81,1.81,0,0,1,1.88-1.93,1.88,1.88,0,0,1,1.32.54Z"/><path class="cls-2" d="M228.38,82.21h-2.67V78.65h2.67v.65h-2v.82h1.93v.63h-1.93v.8h2Z"/><path class="cls-2" d="M232.87,78.65h.67v3.57h-.42l-1.87-2.41v2.4h-.67V78.65h.54l1.75,2.21Z"/><path class="cls-2" d="M236.6,79.26h-1.13v-.61h2.93v.61h-1.13v3h-.67Z"/><path class="cls-2" d="M243.84,80.45a1.83,1.83,0,1,1-3.66,0,1.83,1.83,0,1,1,3.66,0Zm-3,0a1.17,1.17,0,1,0,2.34,0,1.17,1.17,0,1,0-2.34,0Z"/><path class="cls-2" d="M210.65,85.62a1,1,0,0,0-.85-.4c-.5,0-.74.21-.74.47s.37.4.79.45c.74.09,1.44.29,1.44,1.14s-.7,1.14-1.5,1.14a1.48,1.48,0,0,1-1.55-.88l.56-.29a1,1,0,0,0,1,.57c.42,0,.82-.15.82-.53s-.35-.47-.82-.52c-.73-.09-1.4-.28-1.4-1.08s.72-1,1.38-1a1.44,1.44,0,0,1,1.4.71Z"/><path class="cls-2" d="M216.84,86.56a1.83,1.83,0,1,1-3.66,0,1.83,1.83,0,1,1,3.66,0Zm-3,0a1.17,1.17,0,1,0,2.34,0,1.17,1.17,0,1,0-2.34,0Z"/><path class="cls-2" d="M219.53,84.76V87.7h1.83v.62h-2.5V84.76Z"/><path class="cls-2" d="M226.28,84.76v2a1.45,1.45,0,0,1-1.54,1.59,1.49,1.49,0,0,1-1.58-1.59v-2h.67v2a.87.87,0,0,0,.92,1c.55,0,.87-.37.87-1v-2Z"/><path class="cls-2" d="M229.38,85.37h-1.13v-.61h2.93v.61h-1.13v3h-.67Z"/><path class="cls-2" d="M233.12,88.32V84.76h.67v3.56Z"/><path class="cls-2" d="M239.56,86.56a1.83,1.83,0,1,1-3.66,0,1.83,1.83,0,1,1,3.66,0Zm-3,0a1.17,1.17,0,1,0,2.34,0,1.17,1.17,0,1,0-2.34,0Z"/><path class="cls-2" d="M243.92,84.75h.67v3.57h-.42l-1.87-2.41v2.4h-.67V84.76h.54L243.92,87Z"/><path class="cls-2" d="M211.8,93.38h-1v1h-.67V90.86h1.68A1.26,1.26,0,1,1,211.8,93.38Zm-1-.62h1a.63.63,0,1,0,0-1.26h-1Z"/><path class="cls-2" d="M217.61,93.75h-1.86l-.31.67h-.73l1.6-3.56H217l1.6,3.56h-.73Zm-.93-2.14L216,93.13h1.32Z"/><path class="cls-2" d="M223.63,94.43h-.8l-1-1.19h-.65v1.19h-.67V90.86h1.7A1.18,1.18,0,0,1,223.45,92a1.06,1.06,0,0,1-.9,1.12l1.08,1.22Zm-2.48-2.94v1.14h1a.57.57,0,1,0,0-1.14Z"/><path class="cls-2" d="M226.51,91.47h-1.13v-.61h2.93v.61h-1.13v3h-.67Z"/><path class="cls-2" d="M232.59,90.86h.67v3.57h-.42L231,92v2.4h-.67V90.86h.54l1.75,2.21Z"/><path class="cls-2" d="M238.06,94.43h-2.67V90.86h2.67v.65h-2v.82H238V93h-1.93v.8h2Z"/><path class="cls-2" d="M243.26,94.43h-.8l-1-1.19h-.65v1.19h-.67V90.86h1.7A1.18,1.18,0,0,1,243.09,92a1.06,1.06,0,0,1-.9,1.12l1.08,1.22Zm-2.48-2.94v1.14h1a.57.57,0,1,0,0-1.14Z"/><polygon class="cls-2" points="207.93 63.7 212.98 66.82 212.98 60.49 207.93 60.49 207.93 63.7"/><polygon class="cls-2" points="229.81 69.26 227.01 71 224.2 69.26 224.2 60.49 218.03 60.49 218.03 65.45 218.03 69.31 218.03 69.94 227.01 75.48 235.99 69.94 235.99 69.31 235.99 65.45 235.99 60.49 229.81 60.49 229.81 69.26"/><polygon class="cls-2" points="241.04 66.82 246.09 63.7 246.09 60.49 241.04 60.49 241.04 66.82"/><polygon class="cls-3" points="257.53 46.71 248.26 46.71 253.21 49.68 248.26 49.68 248.26 55.61 257.53 55.61 254.07 51.16 257.53 46.71"/><rect class="cls-3" x="248.26" y="46.71" width="0.16" height="3.96"/><polygon class="cls-3" points="196.16 46.71 205.43 46.71 200.48 49.68 205.43 49.68 205.43 55.61 196.16 55.61 199.62 51.16 196.16 46.71"/><rect class="cls-3" x="205.27" y="46.71" width="0.16" height="3.96"/><path class="cls-3" d="M200.79,49.68V59.5h52.41V49.68Zm10.77,6.21c0,.66-.48,1.23-1.89,1.23H208c-.14,0-.19-.06-.19-.2V52c0-.14,0-.2.19-.2h1.43c1.41,0,1.89.52,1.89,1.18v.46a.91.91,0,0,1-.58.87c.53.19.83.51.83.94Zm5.41,0c0,.66-.48,1.27-1.89,1.27s-1.89-.62-1.89-1.27V52c0-.14.05-.2.2-.2h.68c.13,0,.19.06.19.2v3.7c0,.39.31.58.83.58s.85-.19.85-.58V52c0-.14,0-.2.19-.2h.68c.14,0,.18.06.18.2Zm5.39,0c0,.66-.46,1.27-1.86,1.27s-1.86-.62-1.86-1.27v-.49c0-.14.05-.2.19-.2h.65c.14,0,.19.06.19.2v.35c0,.38.3.56.83.56s.83-.18.83-.56v-.25c0-.32-.31-.44-.66-.58l-1.21-.45a1.11,1.11,0,0,1-.71-1V53c0-.66.41-1.27,1.77-1.27s1.8.62,1.8,1.27v.32c0,.13-.05.2-.2.2h-.65c-.13,0-.18-.06-.18-.2v-.18c0-.38-.26-.56-.76-.56s-.76.18-.76.56v.12a.43.43,0,0,0,.32.42l1.36.48a1.19,1.19,0,0,1,.92,1.12Zm2.73,1c0,.14,0,.2-.19.2h-.68c-.14,0-.19-.06-.19-.2V52c0-.14,0-.2.19-.2h.68c.14,0,.19.06.19.2Zm5.65,0c0,.13,0,.2-.19.2h-.62a.17.17,0,0,1-.18-.09l-1.5-2.58a3.75,3.75,0,0,1-.31-.63v3.11c0,.13,0,.2-.19.2h-.62c-.14,0-.19-.06-.19-.2V52c0-.13,0-.2.19-.2h.62a.16.16,0,0,1,.16.08l1.57,2.69a5.37,5.37,0,0,1,.26.55V52c0-.13,0-.2.19-.2h.62c.14,0,.19.06.19.2Zm5,0c0,.14-.05.2-.2.2H232.8c-.14,0-.19-.06-.19-.2V52c0-.14,0-.2.19-.2h2.67c.13,0,.19,0,.19.19v.49c0,.14-.06.2-.19.2h-1.8V54h1.67c.14,0,.2,0,.2.19v.47c0,.13-.06.19-.2.19h-1.67v1.45h1.88c.14,0,.2,0,.2.19Zm5.21-1c0,.66-.46,1.27-1.86,1.27s-1.86-.62-1.86-1.27v-.49c0-.14.05-.2.19-.2h.65c.14,0,.19.06.19.2v.35c0,.38.3.56.83.56s.83-.18.83-.56v-.25c0-.32-.31-.44-.66-.58L238,54.49a1.11,1.11,0,0,1-.71-1V53c0-.66.41-1.27,1.77-1.27s1.8.62,1.8,1.27v.32c0,.13-.05.2-.2.2H240c-.13,0-.18-.06-.18-.2v-.18c0-.38-.26-.56-.76-.56s-.76.18-.76.56v.12a.43.43,0,0,0,.32.42l1.36.48a1.19,1.19,0,0,1,.92,1.12Zm5.24,0c0,.66-.46,1.27-1.86,1.27s-1.86-.62-1.86-1.27v-.49c0-.14.05-.2.19-.2h.65c.14,0,.19.06.19.2v.35c0,.38.3.56.83.56s.83-.18.83-.56v-.25c0-.32-.31-.44-.66-.58l-1.21-.45a1.11,1.11,0,0,1-.71-1V53c0-.66.41-1.27,1.77-1.27s1.8.62,1.8,1.27v.32c0,.13-.05.2-.2.2h-.65c-.13,0-.18-.06-.18-.2v-.18c0-.38-.26-.56-.76-.56s-.76.18-.76.56v.12a.43.43,0,0,0,.32.42l1.36.48a1.19,1.19,0,0,1,.92,1.12Z"/><path class="cls-3" d="M209.68,54.81h-.8v1.47h.8c.52,0,.85-.19.85-.58v-.35C210.53,55,210.2,54.81,209.68,54.81Z"/><path class="cls-3" d="M210.28,53.43v-.27c0-.39-.32-.5-.84-.5h-.56V54h.58C210,54,210.28,53.83,210.28,53.43Z"/><polygon class="cls-2" points="224.2 48.86 224.2 43.11 218.03 46.92 218.03 48.86 224.2 48.86"/><polygon class="cls-2" points="235.99 48.86 235.99 46.92 229.81 43.11 229.81 48.86 235.99 48.86"/><polygon class="cls-2" points="212.98 48.86 212.98 44.11 227.01 35.45 241.04 44.11 241.04 48.86 246.09 48.86 246.09 41.31 227.01 29.52 207.93 41.31 207.93 48.86 212.98 48.86"/><path class="cls-3" d="M196.16,65.3a2.93,2.93,0,1,0,2.93,2.93A2.92,2.92,0,0,0,196.16,65.3Zm0,4.73A1.79,1.79,0,1,1,198,68.23,1.86,1.86,0,0,1,196.16,70Z"/><path class="cls-3" d="M248.41,76.75a1.19,1.19,0,1,1,1.19-1.19A1.24,1.24,0,0,1,248.41,76.75Z"/><path class="cls-3" d="M197.22,91.49a.65.65,0,0,0-.66-.66H185.39a.66.66,0,0,0,0,1.32h11.16A.65.65,0,0,0,197.22,91.49Z"/><path class="cls-3" d="M199.49,91.49a.65.65,0,0,0,.66.66h3.6a.66.66,0,0,0,0-1.32h-3.5A.73.73,0,0,0,199.49,91.49Z"/><path class="cls-3" d="M203.84,94.61h-7.76a.66.66,0,0,0,0,1.32h7.76a.66.66,0,0,0,0-1.32Z"/><path class="cls-3" d="M192.67,94.61h-2.55a.66.66,0,0,0,0,1.32h2.55a.65.65,0,0,0,.66-.66C193.43,94.9,193.05,94.61,192.67,94.61Z"/><path class="cls-3" d="M249.23,29.75a.71.71,0,1,0-1,1l1.6,1.6a.73.73,0,0,0,1,0,.67.67,0,0,0,0-1Z"/><path class="cls-3" d="M254.24,34.76a.67.67,0,0,0-1,0c-.2.3-.3.8,0,1l1.6,1.6a.73.73,0,0,0,1,0,.67.67,0,0,0,0-1Z"/><path class="cls-3" d="M249.73,34.76l-1.6,1.6a.67.67,0,0,0,0,1,.73.73,0,0,0,1,0l1.6-1.6a.67.67,0,0,0,0-1A.76.76,0,0,0,249.73,34.76Z"/><path class="cls-3" d="M254.74,29.75l-1.6,1.6a.67.67,0,0,0,0,1,.73.73,0,0,0,1,0l1.6-1.6a.71.71,0,0,0-1-1Z"/></svg>